HIERARCHY
ROOT root
{
	OFFSET 0.000000 0.000000 0.000000
	CHANNELS 6 Xposition Yposition Zposition Zrotation Yrotation Xrotation
	JOINT lhip
	{
		OFFSET 0.058581 -0.082280 -0.017664
		CHANNELS 3 Zrotation Yrotation Xrotation
		JOINT lknee
		{
			OFFSET 0.043451 -0.386469 0.008037
			CHANNELS 3 Zrotation Yrotation Xrotation
			JOINT lankle
			{
				OFFSET -0.014790 -0.426874 -0.037428
				CHANNELS 3 Zrotation Yrotation Xrotation
				JOINT ltoe
				{
					OFFSET 0.041054 -0.060286 0.122042
					CHANNELS 3 Zrotation Yrotation Xrotation
					End Site
					{
						OFFSET 0.000000 0.000000 0.000000
					}
				}
			}
		}
	}
	JOINT rhip
	{
		OFFSET -0.060310 -0.090513 -0.013543
		CHANNELS 3 Zrotation Yrotation Xrotation
		JOINT rknee
		{
			OFFSET -0.043257 -0.383688 -0.004843
			CHANNELS 3 Zrotation Yrotation Xrotation
			JOINT rankle
			{
				OFFSET 0.019056 -0.420046 -0.034562
				CHANNELS 3 Zrotation Yrotation Xrotation
				JOINT rtoe
				{
					OFFSET -0.034840 -0.062106 0.130323
					CHANNELS 3 Zrotation Yrotation Xrotation
					End Site
					{
						OFFSET 0.000000 0.000000 0.000000
					}
				}
			}
		}
	}
	JOINT lowerback
	{
		OFFSET 0.004439 0.124404 -0.038385
		CHANNELS 3 Zrotation Yrotation Xrotation
		JOINT upperback
		{
			OFFSET 0.004488 0.137956 0.026820
			CHANNELS 3 Zrotation Yrotation Xrotation
			JOINT chest
			{
				OFFSET -0.002265 0.056032 0.002855
				CHANNELS 3 Zrotation Yrotation Xrotation
				JOINT lowerneck
				{
					OFFSET -0.013390 0.211636 -0.033468
					CHANNELS 3 Zrotation Yrotation Xrotation
					JOINT upperneck
					{
						OFFSET 0.010113 0.088937 0.050410
						CHANNELS 3 Zrotation Yrotation Xrotation
						End Site
						{
							OFFSET 0.000000 0.000000 0.000000
						}
					}
				}
				JOINT lclavicle
				{
					OFFSET 0.071702 0.114000 -0.018898
					CHANNELS 3 Zrotation Yrotation Xrotation
					JOINT lshoulder
					{
						OFFSET 0.122921 0.045205 -0.019046
						CHANNELS 3 Zrotation Yrotation Xrotation
						JOINT lelbow
						{
							OFFSET 0.255332 -0.015649 -0.022946
							CHANNELS 3 Zrotation Yrotation Xrotation
							JOINT lwrist
							{
								OFFSET 0.265709 0.012698 -0.007375
								CHANNELS 3 Zrotation Yrotation Xrotation
								End Site
								{
									OFFSET 0.000000 0.000000 0.000000
								}
							}
						}
					}
				}
				JOINT rclavicle
				{
					OFFSET -0.082954 0.112472 -0.023707
					CHANNELS 3 Zrotation Yrotation Xrotation
					JOINT rshoulder
					{
						OFFSET -0.113228 0.046853 -0.008472
						CHANNELS 3 Zrotation Yrotation Xrotation
						JOINT relbow
						{
							OFFSET -0.260127 -0.014369 -0.031269
							CHANNELS 3 Zrotation Yrotation Xrotation
							JOINT rwrist
							{
								OFFSET -0.269108 0.006794 -0.006027
								CHANNELS 3 Zrotation Yrotation Xrotation
								End Site
								{
									OFFSET 0.000000 0.000000 0.000000
								}
							}
						}
					}
				}
			}
		}
	}
}
MOTION
Frames: 10
Frame Time: 0.033333
2.039199 1.315135 1.009225 -87.628735 3.293540 86.277818 1.877409 0.393290 8.806691 -2.125984 -14.481582 0.593756 4.816819 7.811562 -16.084582 0.000000 -0.000000 0.000000 2.216134 -3.173040 7.741869 3.587980 3.068809 4.328139 3.874530 -4.143209 -11.766514 0.000000 -0.000000 0.000000 -1.514781 1.453705 4.367939 1.713932 -2.659789 1.691660 1.268725 -1.721606 3.769139 4.939475 0.622527 -3.987820 2.549096 -3.946953 4.451729 -26.674851 4.708467 0.847755 -61.059989 -7.326470 8.373732 9.356209 -27.932063 5.624544 -2.735878 0.079673 -7.967171 24.385120 -2.950579 -1.126536 61.580729 1.645300 11.043873 -14.401076 25.282335 -3.882790 6.720227 -0.170840 -7.579483 
2.040400 1.315166 1.008461 -87.509273 3.431315 86.737276 2.068310 0.215296 7.929505 -2.335487 -14.268819 1.067081 4.775865 7.807466 -16.132641 0.000000 -0.000000 0.000000 2.379809 -3.083034 7.002023 3.635837 2.779959 4.622737 3.758351 -4.287449 -11.566461 0.000000 -0.000000 0.000000 -1.246682 1.339472 4.134709 1.730427 -2.589356 1.090599 1.195140 -1.931551 3.907453 4.906945 0.673753 -3.657647 2.445736 -3.762881 5.458549 -26.491979 4.690428 1.121043 -61.501805 -7.487489 8.557286 9.681468 -28.211686 5.455323 -2.326702 -0.445310 -8.691002 24.163287 -3.230330 -1.143587 61.668590 1.571198 11.337103 -14.232197 25.703311 -3.598880 6.362506 -0.448211 -8.196362 
2.042140 1.316556 1.007523 -88.001212 3.411125 87.184085 2.225326 0.133133 7.236701 -2.585338 -13.749088 1.208387 4.670915 7.798067 -16.167277 0.000000 -0.000000 0.000000 2.418219 -2.487158 6.222958 3.658623 2.647010 4.946198 3.849968 -4.251820 -11.485948 0.000000 -0.000000 0.000000 -1.275093 1.384575 3.784849 1.756329 -2.408167 0.873253 1.161279 -1.831168 4.059928 5.140353 0.472080 -3.745199 2.396364 -4.081490 6.144706 -26.443229 4.971995 1.208887 -61.625147 -7.756643 8.682536 9.951682 -28.652491 4.468990 -1.124141 -1.827160 -9.032584 24.188202 -3.472035 -1.151603 61.706282 1.718155 11.604543 -14.188804 25.694226 -3.569793 5.717635 -0.252912 -8.384196 
2.042937 1.318249 1.006438 -88.075371 3.571262 87.527173 2.624771 -0.053918 6.709128 -2.862712 -13.465988 1.416867 4.770755 7.826666 -15.977782 0.000000 -0.000000 0.000000 2.743533 -2.232977 5.790954 3.599880 2.575640 5.052164 3.643461 -4.628747 -11.259807 0.000000 -0.000000 0.000000 -1.166476 1.296603 3.354783 1.943325 -2.380908 0.875243 1.117846 -1.911275 4.165438 5.007437 0.076014 -3.138291 2.427893 -4.234195 6.162227 -26.360328 5.078348 1.469197 -61.784768 -7.636516 8.804728 9.929084 -28.240241 4.783600 -1.281320 -1.635862 -9.002426 23.964197 -3.626245 -1.062439 61.917146 1.672821 11.695630 -14.195922 25.769866 -3.348791 5.746118 -0.380423 -8.707999 
2.042883 1.318223 1.006519 -88.099350 3.442770 87.341229 2.435271 -0.009006 6.923751 -2.784213 -13.547326 1.410402 4.668664 7.846346 -15.929626 0.000000 -0.000000 0.000000 2.538398 -2.309306 6.074163 3.613979 2.694529 4.901683 3.787726 -4.475696 -11.219782 0.000000 -0.000000 0.000000 -1.196886 1.352019 3.576645 1.909519 -2.445230 0.880880 1.099883 -1.945111 4.125307 4.994090 -0.321867 -2.691287 2.441639 -4.516796 6.216202 -26.456036 5.238307 1.454516 -61.722343 -7.572871 8.714392 9.907598 -27.684975 4.738259 -1.319144 -1.504916 -8.722183 24.022323 -3.725021 -1.136805 61.857356 1.577394 11.614979 -14.107042 25.471114 -3.379129 5.734619 -0.425902 -8.534839 
2.042987 1.318534 1.006296 -88.126749 3.404711 87.314274 2.386068 -0.006252 6.906766 -2.758834 -13.509197 1.512112 4.763222 7.925275 -15.950024 0.000000 -0.000000 0.000000 2.514078 -2.179958 6.078327 3.647928 2.719247 4.962122 3.676253 -4.655369 -11.184067 0.000000 -0.000000 0.000000 -1.176361 1.319034 3.408174 1.935444 -2.478531 1.047795 1.041843 -1.971162 4.198322 5.126176 -0.244412 -2.423132 2.372109 -4.365594 6.477556 -26.413448 5.268037 1.690095 -61.803953 -7.316308 8.687199 9.961956 -26.650069 4.960672 -1.768140 -1.606162 -8.721821 24.022464 -3.731133 -1.056161 61.900382 1.570432 11.635686 -14.211238 24.749917 -3.323103 5.924877 -0.588811 -8.604166 
2.043312 1.319068 1.006296 -88.060766 3.443325 87.283525 2.352363 -0.031789 6.767548 -2.606022 -13.569028 1.783620 4.643240 7.928419 -16.083245 0.000000 -0.000000 0.000000 2.588086 -2.098626 6.128090 3.691085 2.701830 4.894451 3.679789 -4.721934 -11.140807 0.000000 -0.000000 0.000000 -1.142532 1.311786 3.485994 1.960642 -2.535580 0.945879 1.092031 -2.081042 4.242977 5.110645 -0.312353 -2.190435 2.310419 -4.329608 6.603885 -26.434286 5.318135 1.941129 -61.795264 -6.929033 8.612515 10.001290 -25.471487 5.134804 -1.534345 -1.824219 -8.321784 24.012751 -3.789172 -0.880339 61.836993 1.474876 11.527755 -14.096262 24.417219 -3.348781 5.729981 -0.553256 -8.752539 
2.043603 1.319535 1.006364 -88.037421 3.423460 87.329144 2.306328 -0.159815 6.638681 -2.564486 -13.665157 1.893397 4.713089 8.106140 -16.078400 0.000000 -0.000000 0.000000 2.607330 -2.029245 6.008368 3.760607 2.804145 5.004105 3.577948 -4.933366 -11.182396 0.000000 -0.000000 0.000000 -1.159995 1.311728 3.448808 2.033458 -2.582092 0.939517 1.079703 -2.157404 4.285995 5.114387 -0.803421 -1.898290 2.152369 -4.821244 6.859628 -26.463754 5.455432 2.071264 -61.775064 -6.640942 8.405252 9.910591 -23.822270 5.127059 -2.162808 -1.616244 -8.433116 23.985203 -3.899049 -0.830766 61.847325 1.340440 11.537634 -14.220576 23.652190 -3.249353 5.942901 -0.515597 -8.804510 
2.043708 1.319873 1.006368 -88.015836 3.358337 87.129836 2.234072 -0.157783 6.799197 -2.557232 -13.807335 1.986515 4.708948 8.205761 -16.114833 0.000000 -0.000000 0.000000 2.557675 -2.047946 6.220464 3.764462 2.790005 4.999385 3.497693 -4.973470 -11.231388 0.000000 -0.000000 0.000000 -1.175882 1.350766 3.683517 1.993698 -2.700397 1.077062 1.097058 -2.142184 4.212587 4.907409 -1.311270 -1.026189 2.170840 -5.005694 6.399984 -26.425958 5.615815 2.198398 -61.669006 -6.344693 7.876976 9.756817 -22.384370 4.788438 -3.074233 -0.838724 -8.455072 23.893892 -3.926058 -0.758519 61.836599 1.234740 11.271595 -14.039734 23.168286 -3.175506 6.449663 -0.511114 -8.627849 
2.043387 1.320545 1.006171 -88.242799 3.400921 87.110271 2.299599 0.021814 6.909565 -2.480410 -13.901866 1.863760 4.735985 8.336513 -16.202939 0.000000 -0.000000 0.000000 2.669544 -1.777307 6.263531 3.768798 2.857764 4.961179 3.472123 -5.058837 -11.127130 0.000000 -0.000000 0.000000 -1.037718 1.268095 3.548881 1.983152 -2.504335 1.150964 1.017656 -2.054727 4.339793 5.278304 -1.303478 -1.077155 2.161595 -4.861182 6.584344 -26.605178 5.834805 2.286821 -61.396235 -5.876966 7.565289 9.879953 -20.517585 4.750171 -2.831963 -0.794844 -7.720508 23.840129 -4.170572 -0.681529 61.849681 1.039629 11.138109 -14.004499 22.257852 -3.282338 6.370029 -0.417137 -8.668589 
